<svg width="640" height="360" viewBox="0 0 640 360" fill="none" xmlns="http://www.w3.org/2000/svg">
  <rect width="640" height="360" rx="32" fill="#EFF2FF"/>
  <rect x="58" y="44" width="524" height="274" rx="28" fill="#FCFCFF" stroke="#DCE2FA" stroke-width="2"/>
  <rect x="58" y="44" width="524" height="52" rx="28" fill="#27439A"/>
  <rect x="92" y="126" width="208" height="22" rx="11" fill="#DCE7FF"/>
  <rect x="92" y="164" width="248" height="16" rx="8" fill="#233247" fill-opacity="0.9"/>
  <rect x="92" y="194" width="212" height="14" rx="7" fill="#66758C" fill-opacity="0.25"/>
  <rect x="92" y="236" width="166" height="44" rx="20" fill="#27439A"/>
  <rect x="284" y="236" width="128" height="44" rx="20" fill="#EEF2FF"/>
  <rect x="396" y="126" width="140" height="132" rx="24" fill="#EEF2FF"/>
  <path d="M430 214L454 188L476 202L512 154" stroke="#27439A" stroke-width="8" stroke-linecap="round" stroke-linejoin="round"/>
  <circle cx="430" cy="214" r="8" fill="#27439A"/>
  <circle cx="454" cy="188" r="8" fill="#27439A"/>
  <circle cx="476" cy="202" r="8" fill="#27439A"/>
  <circle cx="512" cy="154" r="8" fill="#27439A"/>
</svg>
